<svg width="860" height="200" viewBox="0 0 860 200" fill="none" xmlns="http://www.w3.org/2000/svg">
<g clip-path="url(#clip0_8_30)">
<path d="M842 0H10C2.26801 0 -4 6.26801 -4 14V186C-4 193.732 2.26801 200 10 200H842C849.732 200 856 193.732 856 186V14C856 6.26801 849.732 0 842 0Z" fill="url(#paint0_linear_8_30)"/>
<path d="M-4 100H856" stroke="url(#paint1_linear_8_30)"/>
<path opacity="0.22" d="M62 130H52C49.7909 130 48 131.791 48 134V168C48 170.209 49.7909 172 52 172H62C64.2091 172 66 170.209 66 168V134C66 131.791 64.2091 130 62 130Z" fill="#A3D96A"/>
<path opacity="0.45" d="M86 108H76C73.7909 108 72 109.791 72 112V168C72 170.209 73.7909 172 76 172H86C88.2091 172 90 170.209 90 168V112C90 109.791 88.2091 108 86 108Z" fill="#A3D96A"/>
<path opacity="0.72" d="M110 84H100C97.7909 84 96 85.7909 96 88V168C96 170.209 97.7909 172 100 172H110C112.209 172 114 170.209 114 168V88C114 85.7909 112.209 84 110 84Z" fill="#A3D96A"/>
<path d="M134 56H124C121.791 56 120 57.7909 120 60V168C120 170.209 121.791 172 124 172H134C136.209 172 138 170.209 138 168V60C138 57.7909 136.209 56 134 56Z" fill="#A3D96A"/>
<path d="M162.704 137L179.152 89.32H190.416L206.864 137H197.392L194 126.76H175.568L172.112 137H162.704ZM178.064 119.08H191.504L183.568 95.336H186L178.064 119.08ZM211.467 137V102.184H219.339V109.032L218.699 107.816C219.509 105.725 220.832 104.147 222.667 103.08C224.544 101.971 226.72 101.416 229.195 101.416C231.755 101.416 234.016 101.971 235.979 103.08C237.984 104.189 239.541 105.747 240.651 107.752C241.76 109.715 242.315 111.997 242.315 114.6V137H233.931V116.584C233.931 115.048 233.632 113.725 233.035 112.616C232.437 111.507 231.605 110.653 230.539 110.056C229.515 109.416 228.299 109.096 226.891 109.096C225.525 109.096 224.309 109.416 223.243 110.056C222.176 110.653 221.344 111.507 220.747 112.616C220.149 113.725 219.851 115.048 219.851 116.584V137H211.467ZM249.404 137V102.184H257.276V109.032L256.636 107.816C257.447 105.725 258.769 104.147 260.604 103.08C262.481 101.971 264.657 101.416 267.132 101.416C269.692 101.416 271.953 101.971 273.916 103.08C275.921 104.189 277.479 105.747 278.588 107.752C279.697 109.715 280.252 111.997 280.252 114.6V137H271.868V116.584C271.868 115.048 271.569 113.725 270.972 112.616C270.375 111.507 269.543 110.653 268.476 110.056C267.452 109.416 266.236 109.096 264.828 109.096C263.463 109.096 262.247 109.416 261.18 110.056C260.113 110.653 259.281 111.507 258.684 112.616C258.087 113.725 257.788 115.048 257.788 116.584V137H249.404Z" fill="#DDE8D0"/>
<path d="M303.854 137.768C300.27 137.768 297.134 136.957 294.446 135.336C291.758 133.715 289.667 131.517 288.174 128.744C286.68 125.971 285.934 122.899 285.934 119.528C285.934 116.029 286.68 112.936 288.174 110.248C289.71 107.517 291.779 105.363 294.382 103.784C297.027 102.205 299.971 101.416 303.214 101.416C305.944 101.416 308.334 101.864 310.382 102.76C312.472 103.656 314.243 104.893 315.694 106.472C317.144 108.051 318.254 109.864 319.022 111.912C319.79 113.917 320.174 116.093 320.174 118.44C320.174 119.037 320.131 119.656 320.046 120.296C320.003 120.936 319.896 121.491 319.726 121.96H292.845V115.56H314.99L311.022 118.568C311.406 116.605 311.299 114.856 310.702 113.32C310.147 111.784 309.208 110.568 307.886 109.672C306.606 108.776 305.048 108.328 303.214 108.328C301.464 108.328 299.907 108.776 298.542 109.672C297.176 110.525 296.131 111.805 295.406 113.512C294.723 115.176 294.467 117.203 294.638 119.592C294.467 121.725 294.744 123.624 295.47 125.288C296.238 126.909 297.347 128.168 298.798 129.064C300.291 129.96 301.998 130.408 303.918 130.408C305.838 130.408 307.459 130.003 308.782 129.192C310.147 128.381 311.214 127.293 311.982 125.928L318.766 129.256C318.083 130.92 317.016 132.392 315.566 133.672C314.115 134.952 312.387 135.955 310.382 136.68C308.419 137.405 306.243 137.768 303.854 137.768ZM336.964 137.768C334.532 137.768 332.42 137.363 330.628 136.552C328.836 135.741 327.449 134.589 326.468 133.096C325.487 131.56 324.996 129.789 324.996 127.784C324.996 125.864 325.423 124.157 326.276 122.664C327.129 121.128 328.452 119.848 330.244 118.824C332.036 117.8 334.297 117.075 337.028 116.648L348.42 114.792V121.192L338.628 122.856C336.964 123.155 335.727 123.688 334.916 124.456C334.105 125.224 333.7 126.227 333.7 127.464C333.7 128.659 334.148 129.619 335.044 130.344C335.983 131.027 337.135 131.368 338.5 131.368C340.249 131.368 341.785 131.005 343.108 130.28C344.473 129.512 345.519 128.467 346.244 127.144C347.012 125.821 347.396 124.371 347.396 122.792V113.832C347.396 112.339 346.799 111.101 345.604 110.12C344.452 109.096 342.916 108.584 340.996 108.584C339.204 108.584 337.604 109.075 336.196 110.056C334.831 110.995 333.828 112.253 333.188 113.832L326.34 110.504C327.023 108.669 328.089 107.091 329.54 105.768C331.033 104.403 332.783 103.336 334.788 102.568C336.793 101.8 338.969 101.416 341.316 101.416C344.175 101.416 346.692 101.949 348.868 103.016C351.044 104.04 352.729 105.491 353.924 107.368C355.161 109.203 355.78 111.357 355.78 113.832V137H347.844V131.048L349.636 130.92C348.74 132.413 347.673 133.672 346.436 134.696C345.199 135.677 343.791 136.445 342.212 137C340.633 137.512 338.884 137.768 336.964 137.768ZM363.529 137V88.552H371.913V137H363.529Z" fill="#A3D96A"/>
<path opacity="0.18" d="M413 69V153" stroke="#A3D96A"/>
<path d="M452.121 88L454.948 79.805H456.884L459.711 88H458.083L457.5 86.24H454.332L453.738 88H452.121ZM454.761 84.92H457.071L455.707 80.839H456.125L454.761 84.92ZM460.623 88V79.805H461.789L466.299 85.877L465.694 85.998V79.805H467.19V88H466.013L461.569 81.884L462.119 81.763V88H460.623ZM468.776 88V79.805H469.942L474.452 85.877L473.847 85.998V79.805H475.343V88H474.166L469.722 81.884L470.272 81.763V88H468.776ZM476.93 88V79.805H482.375V81.125H478.426V83.226H482.155V84.546H478.426V86.68H482.375V88H476.93ZM482.801 88L485.628 79.805H487.564L490.391 88H488.763L488.18 86.24H485.012L484.418 88H482.801ZM485.441 84.92H487.751L486.387 80.839H486.805L485.441 84.92ZM491.303 88V79.805H492.799V86.68H496.308V88H491.303ZM500.682 88V81.125H498.559V79.805H504.279V81.125H502.189V88H500.682ZM505.192 88V79.805H510.637V81.125H506.688V83.226H510.417V84.546H506.688V86.68H510.637V88H505.192ZM511.063 88L513.89 79.805H515.826L518.653 88H517.025L516.442 86.24H513.274L512.68 88H511.063ZM513.703 84.92H516.013L514.649 80.839H515.067L513.703 84.92ZM519.565 88V79.805H520.995L524.064 83.974H523.382L526.385 79.805H527.815V88H526.308V81.51L526.891 81.653L523.778 85.8H523.602L520.566 81.653L521.061 81.51V88H519.565Z" fill="#A3D96A"/>
<path d="M457.691 116L452.231 100.355H455.339L459.623 113.312H459.014L463.298 100.355H466.406L460.967 116H457.691ZM468.155 116V100.355H473.993C475.057 100.355 475.995 100.551 476.807 100.943C477.633 101.321 478.277 101.881 478.739 102.623C479.201 103.351 479.432 104.24 479.432 105.29C479.432 106.326 479.194 107.215 478.718 107.957C478.256 108.685 477.619 109.245 476.807 109.637C475.995 110.029 475.057 110.225 473.993 110.225H471.011V116H468.155ZM471.011 107.705H474.035C474.553 107.705 475.001 107.607 475.379 107.411C475.757 107.201 476.051 106.914 476.261 106.55C476.471 106.186 476.576 105.766 476.576 105.29C476.576 104.8 476.471 104.38 476.261 104.03C476.051 103.666 475.757 103.386 475.379 103.19C475.001 102.98 474.553 102.875 474.035 102.875H471.011V107.705ZM481.772 116V100.355H483.998L492.608 111.947L491.453 112.178V100.355H494.309V116H492.062L483.578 104.324L484.628 104.093V116H481.772ZM508.42 116.252C507.3 116.252 506.264 116.049 505.312 115.643C504.374 115.237 503.548 114.67 502.834 113.942C502.134 113.214 501.588 112.36 501.196 111.38C500.804 110.4 500.608 109.329 500.608 108.167C500.608 107.005 500.797 105.934 501.175 104.954C501.567 103.96 502.113 103.106 502.813 102.392C503.527 101.664 504.36 101.104 505.312 100.712C506.264 100.306 507.3 100.103 508.42 100.103C509.54 100.103 510.541 100.292 511.423 100.67C512.319 101.048 513.075 101.552 513.691 102.182C514.307 102.798 514.748 103.477 515.014 104.219L512.452 105.416C512.158 104.632 511.661 103.988 510.961 103.484C510.261 102.966 509.414 102.707 508.42 102.707C507.44 102.707 506.572 102.938 505.816 103.4C505.074 103.862 504.493 104.499 504.073 105.311C503.667 106.123 503.464 107.075 503.464 108.167C503.464 109.259 503.667 110.218 504.073 111.044C504.493 111.856 505.074 112.493 505.816 112.955C506.572 113.417 507.44 113.648 508.42 113.648C509.414 113.648 510.261 113.396 510.961 112.892C511.661 112.374 512.158 111.723 512.452 110.939L515.014 112.136C514.748 112.878 514.307 113.564 513.691 114.194C513.075 114.81 512.319 115.307 511.423 115.685C510.541 116.063 509.54 116.252 508.42 116.252ZM522.482 116.252C521.362 116.252 520.34 115.993 519.416 115.475C518.506 114.957 517.778 114.25 517.232 113.354C516.7 112.458 516.434 111.436 516.434 110.288C516.434 109.14 516.7 108.118 517.232 107.222C517.778 106.326 518.506 105.619 519.416 105.101C520.326 104.583 521.348 104.324 522.482 104.324C523.602 104.324 524.617 104.583 525.527 105.101C526.437 105.619 527.158 106.326 527.69 107.222C528.236 108.104 528.509 109.126 528.509 110.288C528.509 111.436 528.236 112.458 527.69 113.354C527.144 114.25 526.416 114.957 525.506 115.475C524.596 115.993 523.588 116.252 522.482 116.252ZM522.482 113.732C523.098 113.732 523.637 113.585 524.099 113.291C524.575 112.997 524.946 112.591 525.212 112.073C525.492 111.541 525.632 110.946 525.632 110.288C525.632 109.616 525.492 109.028 525.212 108.524C524.946 108.006 524.575 107.6 524.099 107.306C523.637 106.998 523.098 106.844 522.482 106.844C521.852 106.844 521.299 106.998 520.823 107.306C520.347 107.6 519.969 108.006 519.689 108.524C519.423 109.028 519.29 109.616 519.29 110.288C519.29 110.946 519.423 111.541 519.689 112.073C519.969 112.591 520.347 112.997 520.823 113.291C521.299 113.585 521.852 113.732 522.482 113.732ZM530.595 116V104.576H533.178V106.823L532.968 106.424C533.234 105.738 533.668 105.22 534.27 104.87C534.886 104.506 535.6 104.324 536.412 104.324C537.252 104.324 537.994 104.506 538.638 104.87C539.296 105.234 539.807 105.745 540.171 106.403C540.535 107.047 540.717 107.796 540.717 108.65V116H537.966V109.301C537.966 108.797 537.868 108.363 537.672 107.999C537.476 107.635 537.203 107.355 536.853 107.159C536.517 106.949 536.118 106.844 535.656 106.844C535.208 106.844 534.809 106.949 534.459 107.159C534.109 107.355 533.836 107.635 533.64 107.999C533.444 108.363 533.346 108.797 533.346 109.301V116H530.595ZM548.252 116.126C546.964 116.126 545.963 115.776 545.249 115.076C544.549 114.362 544.199 113.361 544.199 112.073V107.033H542.225V104.576H542.435C542.995 104.576 543.429 104.429 543.737 104.135C544.045 103.841 544.199 103.414 544.199 102.854V101.972H546.95V104.576H549.575V107.033H546.95V111.926C546.95 112.304 547.013 112.626 547.139 112.892C547.279 113.158 547.489 113.361 547.769 113.501C548.063 113.641 548.434 113.711 548.882 113.711C548.98 113.711 549.092 113.704 549.218 113.69C549.358 113.676 549.491 113.662 549.617 113.648V116C549.421 116.028 549.197 116.056 548.945 116.084C548.693 116.112 548.462 116.126 548.252 116.126ZM551.719 116V104.576H554.302V107.117L554.092 106.739C554.358 105.885 554.771 105.29 555.331 104.954C555.905 104.618 556.591 104.45 557.389 104.45H558.061V106.886H557.074C556.29 106.886 555.66 107.131 555.184 107.621C554.708 108.097 554.47 108.769 554.47 109.637V116H551.719ZM565.159 116.252C564.039 116.252 563.017 115.993 562.093 115.475C561.183 114.957 560.455 114.25 559.909 113.354C559.377 112.458 559.111 111.436 559.111 110.288C559.111 109.14 559.377 108.118 559.909 107.222C560.455 106.326 561.183 105.619 562.093 105.101C563.003 104.583 564.025 104.324 565.159 104.324C566.279 104.324 567.294 104.583 568.204 105.101C569.114 105.619 569.835 106.326 570.367 107.222C570.913 108.104 571.186 109.126 571.186 110.288C571.186 111.436 570.913 112.458 570.367 113.354C569.821 114.25 569.093 114.957 568.183 115.475C567.273 115.993 566.265 116.252 565.159 116.252ZM565.159 113.732C565.775 113.732 566.314 113.585 566.776 113.291C567.252 112.997 567.623 112.591 567.889 112.073C568.169 111.541 568.309 110.946 568.309 110.288C568.309 109.616 568.169 109.028 567.889 108.524C567.623 108.006 567.252 107.6 566.776 107.306C566.314 106.998 565.775 106.844 565.159 106.844C564.529 106.844 563.976 106.998 563.5 107.306C563.024 107.6 562.646 108.006 562.366 108.524C562.1 109.028 561.967 109.616 561.967 110.288C561.967 110.946 562.1 111.541 562.366 112.073C562.646 112.591 563.024 112.997 563.5 113.291C563.976 113.585 564.529 113.732 565.159 113.732ZM573.272 116V100.103H576.023V116H573.272ZM582.527 116V100.355H588.365C589.429 100.355 590.367 100.551 591.179 100.943C592.005 101.321 592.649 101.881 593.111 102.623C593.573 103.351 593.804 104.24 593.804 105.29C593.804 106.326 593.566 107.215 593.09 107.957C592.628 108.685 591.991 109.245 591.179 109.637C590.367 110.029 589.429 110.225 588.365 110.225H585.383V116H582.527ZM585.383 107.705H588.407C588.925 107.705 589.373 107.607 589.751 107.411C590.129 107.201 590.423 106.914 590.633 106.55C590.843 106.186 590.948 105.766 590.948 105.29C590.948 104.8 590.843 104.38 590.633 104.03C590.423 103.666 590.129 103.386 589.751 103.19C589.373 102.98 588.925 102.875 588.407 102.875H585.383V107.705ZM595.913 116V100.103H598.664V116H595.913ZM604.669 116.252C603.871 116.252 603.178 116.119 602.59 115.853C602.002 115.587 601.547 115.209 601.225 114.719C600.903 114.215 600.742 113.634 600.742 112.976C600.742 112.346 600.882 111.786 601.162 111.296C601.442 110.792 601.876 110.372 602.464 110.036C603.052 109.7 603.794 109.462 604.69 109.322L608.428 108.713V110.813L605.215 111.359C604.669 111.457 604.263 111.632 603.997 111.884C603.731 112.136 603.598 112.465 603.598 112.871C603.598 113.263 603.745 113.578 604.039 113.816C604.347 114.04 604.725 114.152 605.173 114.152C605.747 114.152 606.251 114.033 606.685 113.795C607.133 113.543 607.476 113.2 607.714 112.766C607.966 112.332 608.092 111.856 608.092 111.338V108.398C608.092 107.908 607.896 107.502 607.504 107.18C607.126 106.844 606.622 106.676 605.992 106.676C605.404 106.676 604.879 106.837 604.417 107.159C603.969 107.467 603.64 107.88 603.43 108.398L601.183 107.306C601.407 106.704 601.757 106.186 602.233 105.752C602.723 105.304 603.297 104.954 603.955 104.702C604.613 104.45 605.327 104.324 606.097 104.324C607.035 104.324 607.861 104.499 608.575 104.849C609.289 105.185 609.842 105.661 610.234 106.277C610.64 106.879 610.843 107.586 610.843 108.398V116H608.239V114.047L608.827 114.005C608.533 114.495 608.183 114.908 607.777 115.244C607.371 115.566 606.909 115.818 606.391 116C605.873 116.168 605.299 116.252 604.669 116.252ZM613.385 116V104.576H615.968V106.823L615.758 106.424C616.024 105.738 616.458 105.22 617.06 104.87C617.676 104.506 618.39 104.324 619.202 104.324C620.042 104.324 620.784 104.506 621.428 104.87C622.086 105.234 622.597 105.745 622.961 106.403C623.325 107.047 623.507 107.796 623.507 108.65V116H620.756V109.301C620.756 108.797 620.658 108.363 620.462 107.999C620.266 107.635 619.993 107.355 619.643 107.159C619.307 106.949 618.908 106.844 618.446 106.844C617.998 106.844 617.599 106.949 617.249 107.159C616.899 107.355 616.626 107.635 616.43 107.999C616.234 108.363 616.136 108.797 616.136 109.301V116H613.385ZM631.252 116.252C630.076 116.252 629.047 115.986 628.165 115.454C627.283 114.922 626.597 114.201 626.107 113.291C625.617 112.381 625.372 111.373 625.372 110.267C625.372 109.119 625.617 108.104 626.107 107.222C626.611 106.326 627.29 105.619 628.144 105.101C629.012 104.583 629.978 104.324 631.042 104.324C631.938 104.324 632.722 104.471 633.394 104.765C634.08 105.059 634.661 105.465 635.137 105.983C635.613 106.501 635.977 107.096 636.229 107.768C636.481 108.426 636.607 109.14 636.607 109.91C636.607 110.106 636.593 110.309 636.565 110.519C636.551 110.729 636.516 110.911 636.46 111.065H627.64V108.965H634.906L633.604 109.952C633.73 109.308 633.695 108.734 633.499 108.23C633.317 107.726 633.009 107.327 632.575 107.033C632.155 106.739 631.644 106.592 631.042 106.592C630.468 106.592 629.957 106.739 629.509 107.033C629.061 107.313 628.718 107.733 628.48 108.293C628.256 108.839 628.172 109.504 628.228 110.288C628.172 110.988 628.263 111.611 628.501 112.157C628.753 112.689 629.117 113.102 629.593 113.396C630.083 113.69 630.643 113.837 631.273 113.837C631.903 113.837 632.435 113.704 632.869 113.438C633.317 113.172 633.667 112.815 633.919 112.367L636.145 113.459C635.921 114.005 635.571 114.488 635.095 114.908C634.619 115.328 634.052 115.657 633.394 115.895C632.75 116.133 632.036 116.252 631.252 116.252Z" fill="#DDE8D0"/>
<path d="M457.268 138.144C456.644 138.144 456.06 138.032 455.516 137.808C454.98 137.576 454.508 137.256 454.1 136.848C453.692 136.432 453.372 135.944 453.14 135.384C452.908 134.816 452.792 134.196 452.792 133.524C452.792 132.852 452.908 132.236 453.14 131.676C453.372 131.108 453.692 130.62 454.1 130.212C454.508 129.796 454.98 129.476 455.516 129.252C456.06 129.028 456.644 128.916 457.268 128.916C457.892 128.916 458.472 129.032 459.008 129.264C459.552 129.488 460.028 129.808 460.436 130.224C460.844 130.632 461.164 131.116 461.396 131.676C461.628 132.236 461.744 132.852 461.744 133.524C461.744 134.196 461.628 134.816 461.396 135.384C461.164 135.944 460.844 136.432 460.436 136.848C460.028 137.256 459.552 137.576 459.008 137.808C458.472 138.032 457.892 138.144 457.268 138.144ZM457.268 137.244C457.788 137.244 458.26 137.148 458.684 136.956C459.116 136.764 459.488 136.496 459.8 136.152C460.112 135.808 460.352 135.412 460.52 134.964C460.696 134.516 460.784 134.036 460.784 133.524C460.784 133.02 460.696 132.544 460.52 132.096C460.352 131.648 460.112 131.252 459.8 130.908C459.488 130.564 459.116 130.296 458.684 130.104C458.26 129.912 457.788 129.816 457.268 129.816C456.748 129.816 456.272 129.912 455.84 130.104C455.416 130.296 455.048 130.564 454.736 130.908C454.424 131.252 454.18 131.648 454.004 132.096C453.836 132.544 453.752 133.02 453.752 133.524C453.752 134.036 453.836 134.516 454.004 134.964C454.18 135.412 454.424 135.808 454.736 136.152C455.048 136.496 455.42 136.764 455.852 136.956C456.284 137.148 456.756 137.244 457.268 137.244ZM463.459 140.4V131.568H464.359V133.008L464.215 132.756C464.471 132.348 464.811 132.024 465.235 131.784C465.667 131.544 466.159 131.424 466.711 131.424C467.319 131.424 467.859 131.572 468.331 131.868C468.811 132.156 469.187 132.552 469.459 133.056C469.739 133.56 469.879 134.136 469.879 134.784C469.879 135.424 469.739 136 469.459 136.512C469.187 137.016 468.811 137.416 468.331 137.712C467.859 138 467.319 138.144 466.711 138.144C466.159 138.144 465.659 138.02 465.211 137.772C464.771 137.516 464.439 137.156 464.215 136.692L464.359 136.56V140.4H463.459ZM466.663 137.244C467.095 137.244 467.479 137.136 467.815 136.92C468.159 136.704 468.427 136.412 468.619 136.044C468.819 135.668 468.919 135.248 468.919 134.784C468.919 134.312 468.819 133.892 468.619 133.524C468.427 133.156 468.159 132.864 467.815 132.648C467.479 132.432 467.095 132.324 466.663 132.324C466.231 132.324 465.839 132.432 465.487 132.648C465.143 132.864 464.867 133.16 464.659 133.536C464.459 133.904 464.359 134.32 464.359 134.784C464.359 135.248 464.459 135.668 464.659 136.044C464.867 136.412 465.143 136.704 465.487 136.92C465.839 137.136 466.231 137.244 466.663 137.244ZM474.391 138.144C473.791 138.144 473.247 138 472.759 137.712C472.279 137.416 471.899 137.012 471.619 136.5C471.339 135.988 471.199 135.408 471.199 134.76C471.199 134.112 471.335 133.54 471.607 133.044C471.879 132.54 472.247 132.144 472.711 131.856C473.183 131.568 473.711 131.424 474.295 131.424C474.759 131.424 475.171 131.512 475.531 131.688C475.899 131.856 476.211 132.088 476.467 132.384C476.723 132.672 476.919 133 477.055 133.368C477.191 133.728 477.259 134.1 477.259 134.484C477.259 134.564 477.255 134.656 477.247 134.76C477.239 134.856 477.227 134.956 477.211 135.06H471.775V134.22H476.695L476.263 134.58C476.335 134.14 476.283 133.748 476.107 133.404C475.939 133.052 475.695 132.776 475.375 132.576C475.055 132.368 474.695 132.264 474.295 132.264C473.895 132.264 473.523 132.368 473.179 132.576C472.843 132.784 472.579 133.076 472.387 133.452C472.195 133.82 472.119 134.26 472.159 134.772C472.119 135.284 472.199 135.732 472.399 136.116C472.607 136.492 472.887 136.784 473.239 136.992C473.599 137.2 473.983 137.304 474.391 137.304C474.863 137.304 475.259 137.192 475.579 136.968C475.899 136.744 476.159 136.464 476.359 136.128L477.127 136.536C476.999 136.824 476.803 137.092 476.539 137.34C476.275 137.58 475.959 137.776 475.591 137.928C475.231 138.072 474.831 138.144 474.391 138.144ZM478.846 138V131.568H479.746V132.816L479.542 132.768C479.702 132.352 479.962 132.024 480.322 131.784C480.69 131.544 481.114 131.424 481.594 131.424C482.05 131.424 482.458 131.528 482.818 131.736C483.186 131.944 483.474 132.232 483.682 132.6C483.898 132.96 484.006 133.368 484.006 133.824V138H483.106V134.172C483.106 133.78 483.034 133.448 482.89 133.176C482.754 132.904 482.558 132.696 482.302 132.552C482.054 132.4 481.766 132.324 481.438 132.324C481.11 132.324 480.818 132.4 480.562 132.552C480.306 132.696 480.106 132.908 479.962 133.188C479.818 133.46 479.746 133.788 479.746 134.172V138H478.846ZM485.689 135.204V134.364H489.889V135.204H485.689ZM493.933 138.144C493.317 138.144 492.777 137.988 492.313 137.676C491.849 137.364 491.513 136.94 491.305 136.404L492.061 136.044C492.245 136.436 492.501 136.748 492.829 136.98C493.165 137.212 493.533 137.328 493.933 137.328C494.317 137.328 494.641 137.236 494.905 137.052C495.169 136.86 495.301 136.612 495.301 136.308C495.301 136.084 495.237 135.908 495.109 135.78C494.981 135.644 494.833 135.54 494.665 135.468C494.497 135.396 494.349 135.344 494.221 135.312L493.297 135.048C492.705 134.88 492.277 134.644 492.013 134.34C491.749 134.036 491.617 133.684 491.617 133.284C491.617 132.908 491.713 132.58 491.905 132.3C492.097 132.02 492.357 131.804 492.685 131.652C493.013 131.5 493.377 131.424 493.777 131.424C494.321 131.424 494.813 131.568 495.253 131.856C495.701 132.136 496.017 132.528 496.201 133.032L495.433 133.392C495.273 133.032 495.041 132.752 494.737 132.552C494.441 132.344 494.109 132.24 493.741 132.24C493.381 132.24 493.093 132.332 492.877 132.516C492.661 132.7 492.553 132.932 492.553 133.212C492.553 133.428 492.609 133.6 492.721 133.728C492.833 133.856 492.961 133.952 493.105 134.016C493.257 134.08 493.389 134.128 493.501 134.16L494.569 134.472C495.089 134.624 495.493 134.86 495.781 135.18C496.077 135.5 496.225 135.876 496.225 136.308C496.225 136.66 496.125 136.976 495.925 137.256C495.733 137.536 495.465 137.756 495.121 137.916C494.777 138.068 494.381 138.144 493.933 138.144ZM500.819 138.144C500.211 138.144 499.659 138 499.163 137.712C498.667 137.416 498.271 137.016 497.975 136.512C497.687 136 497.543 135.42 497.543 134.772C497.543 134.132 497.687 133.56 497.975 133.056C498.263 132.552 498.651 132.156 499.139 131.868C499.635 131.572 500.195 131.424 500.819 131.424C501.443 131.424 501.999 131.568 502.487 131.856C502.983 132.144 503.371 132.54 503.651 133.044C503.939 133.548 504.083 134.124 504.083 134.772C504.083 135.428 503.935 136.012 503.639 136.524C503.343 137.028 502.947 137.424 502.451 137.712C501.963 138 501.419 138.144 500.819 138.144ZM500.819 137.244C501.251 137.244 501.639 137.136 501.983 136.92C502.335 136.704 502.611 136.408 502.811 136.032C503.019 135.656 503.123 135.236 503.123 134.772C503.123 134.308 503.019 133.892 502.811 133.524C502.611 133.156 502.335 132.864 501.983 132.648C501.639 132.432 501.251 132.324 500.819 132.324C500.387 132.324 499.995 132.432 499.643 132.648C499.299 132.864 499.023 133.156 498.815 133.524C498.607 133.892 498.503 134.308 498.503 134.772C498.503 135.236 498.607 135.656 498.815 136.032C499.023 136.408 499.299 136.704 499.643 136.92C499.995 137.136 500.387 137.244 500.819 137.244ZM507.95 138.144C507.502 138.144 507.094 138.04 506.726 137.832C506.358 137.616 506.066 137.32 505.85 136.944C505.642 136.56 505.538 136.12 505.538 135.624V131.568H506.438V135.516C506.438 135.86 506.506 136.164 506.642 136.428C506.786 136.684 506.982 136.884 507.23 137.028C507.486 137.172 507.778 137.244 508.106 137.244C508.434 137.244 508.726 137.172 508.982 137.028C509.238 136.876 509.438 136.664 509.582 136.392C509.726 136.112 509.798 135.78 509.798 135.396V131.568H510.698V138H509.798V136.752L510.002 136.8C509.85 137.216 509.59 137.544 509.222 137.784C508.854 138.024 508.43 138.144 507.95 138.144ZM512.549 138V131.568H513.449V132.624L513.329 132.468C513.481 132.164 513.709 131.924 514.013 131.748C514.325 131.572 514.701 131.484 515.141 131.484H515.549V132.384H514.985C514.521 132.384 514.149 132.528 513.869 132.816C513.589 133.104 513.449 133.512 513.449 134.04V138H512.549ZM519.544 138.144C518.912 138.144 518.356 137.996 517.876 137.7C517.396 137.404 517.02 137.004 516.748 136.5C516.476 135.988 516.34 135.412 516.34 134.772C516.34 134.132 516.476 133.56 516.748 133.056C517.02 132.552 517.396 132.156 517.876 131.868C518.356 131.572 518.912 131.424 519.544 131.424C519.944 131.424 520.32 131.496 520.672 131.64C521.024 131.784 521.336 131.98 521.608 132.228C521.88 132.468 522.084 132.748 522.22 133.068L521.404 133.488C521.244 133.144 521 132.864 520.672 132.648C520.344 132.432 519.968 132.324 519.544 132.324C519.12 132.324 518.736 132.432 518.392 132.648C518.056 132.856 517.788 133.148 517.588 133.524C517.396 133.892 517.3 134.312 517.3 134.784C517.3 135.248 517.396 135.668 517.588 136.044C517.788 136.412 518.056 136.704 518.392 136.92C518.736 137.136 519.12 137.244 519.544 137.244C519.968 137.244 520.34 137.136 520.66 136.92C520.988 136.704 521.236 136.416 521.404 136.056L522.22 136.5C522.084 136.812 521.88 137.092 521.608 137.34C521.336 137.588 521.024 137.784 520.672 137.928C520.32 138.072 519.944 138.144 519.544 138.144ZM526.727 138.144C526.127 138.144 525.583 138 525.095 137.712C524.615 137.416 524.235 137.012 523.955 136.5C523.675 135.988 523.535 135.408 523.535 134.76C523.535 134.112 523.671 133.54 523.943 133.044C524.215 132.54 524.583 132.144 525.047 131.856C525.519 131.568 526.047 131.424 526.631 131.424C527.095 131.424 527.507 131.512 527.867 131.688C528.235 131.856 528.547 132.088 528.803 132.384C529.059 132.672 529.255 133 529.391 133.368C529.527 133.728 529.595 134.1 529.595 134.484C529.595 134.564 529.591 134.656 529.583 134.76C529.575 134.856 529.563 134.956 529.547 135.06H524.111V134.22H529.031L528.599 134.58C528.671 134.14 528.619 133.748 528.443 133.404C528.275 133.052 528.031 132.776 527.711 132.576C527.391 132.368 527.031 132.264 526.631 132.264C526.231 132.264 525.859 132.368 525.515 132.576C525.179 132.784 524.915 133.076 524.723 133.452C524.531 133.82 524.455 134.26 524.495 134.772C524.455 135.284 524.535 135.732 524.735 136.116C524.943 136.492 525.223 136.784 525.575 136.992C525.935 137.2 526.319 137.304 526.727 137.304C527.199 137.304 527.595 137.192 527.915 136.968C528.235 136.744 528.495 136.464 528.695 136.128L529.463 136.536C529.335 136.824 529.139 137.092 528.875 137.34C528.611 137.58 528.295 137.776 527.927 137.928C527.567 138.072 527.167 138.144 526.727 138.144ZM533.533 135.444V134.124H534.493V135.444H533.533ZM541.838 138.144C541.27 138.144 540.754 138.036 540.29 137.82C539.826 137.604 539.434 137.316 539.114 136.956C538.794 136.588 538.566 136.184 538.43 135.744L539.294 135.42C539.502 136.028 539.826 136.492 540.266 136.812C540.706 137.124 541.23 137.28 541.838 137.28C542.222 137.28 542.558 137.22 542.846 137.1C543.142 136.972 543.37 136.796 543.53 136.572C543.69 136.348 543.77 136.088 543.77 135.792C543.77 135.352 543.65 135.012 543.41 134.772C543.17 134.532 542.826 134.348 542.378 134.22L540.77 133.74C540.138 133.556 539.65 133.248 539.306 132.816C538.97 132.384 538.802 131.892 538.802 131.34C538.802 130.868 538.918 130.452 539.15 130.092C539.382 129.724 539.698 129.436 540.098 129.228C540.506 129.02 540.966 128.916 541.478 128.916C542.014 128.916 542.494 129.016 542.918 129.216C543.35 129.408 543.714 129.664 544.01 129.984C544.306 130.304 544.518 130.66 544.646 131.052L543.806 131.388C543.614 130.86 543.314 130.46 542.906 130.188C542.506 129.916 542.034 129.78 541.49 129.78C541.146 129.78 540.842 129.84 540.578 129.96C540.322 130.08 540.122 130.252 539.978 130.476C539.834 130.7 539.762 130.964 539.762 131.268C539.762 131.636 539.878 131.968 540.11 132.264C540.342 132.552 540.698 132.768 541.178 132.912L542.594 133.332C543.298 133.54 543.83 133.84 544.19 134.232C544.55 134.624 544.73 135.116 544.73 135.708C544.73 136.188 544.606 136.612 544.358 136.98C544.118 137.34 543.778 137.624 543.338 137.832C542.906 138.04 542.406 138.144 541.838 138.144ZM549.379 138.144C548.779 138.144 548.235 138 547.747 137.712C547.267 137.416 546.887 137.012 546.607 136.5C546.327 135.988 546.187 135.408 546.187 134.76C546.187 134.112 546.323 133.54 546.595 133.044C546.867 132.54 547.235 132.144 547.699 131.856C548.171 131.568 548.699 131.424 549.283 131.424C549.747 131.424 550.159 131.512 550.519 131.688C550.887 131.856 551.199 132.088 551.455 132.384C551.711 132.672 551.907 133 552.043 133.368C552.179 133.728 552.247 134.1 552.247 134.484C552.247 134.564 552.243 134.656 552.235 134.76C552.227 134.856 552.215 134.956 552.199 135.06H546.763V134.22H551.683L551.251 134.58C551.323 134.14 551.271 133.748 551.095 133.404C550.927 133.052 550.683 132.776 550.363 132.576C550.043 132.368 549.683 132.264 549.283 132.264C548.883 132.264 548.511 132.368 548.167 132.576C547.831 132.784 547.567 133.076 547.375 133.452C547.183 133.82 547.107 134.26 547.147 134.772C547.107 135.284 547.187 135.732 547.387 136.116C547.595 136.492 547.875 136.784 548.227 136.992C548.587 137.2 548.971 137.304 549.379 137.304C549.851 137.304 550.247 137.192 550.567 136.968C550.887 136.744 551.147 136.464 551.347 136.128L552.115 136.536C551.987 136.824 551.791 137.092 551.527 137.34C551.263 137.58 550.947 137.776 550.579 137.928C550.219 138.072 549.819 138.144 549.379 138.144ZM553.834 138V128.916H554.734V138H553.834ZM557.236 138V132.468H555.952V131.568H557.236V130.992C557.236 130.544 557.336 130.168 557.536 129.864C557.736 129.552 558 129.316 558.328 129.156C558.656 128.996 559.008 128.916 559.384 128.916C559.464 128.916 559.556 128.924 559.66 128.94C559.764 128.948 559.848 128.96 559.912 128.976V129.792C559.856 129.776 559.78 129.768 559.684 129.768C559.588 129.76 559.52 129.756 559.48 129.756C559.096 129.756 558.776 129.848 558.52 130.032C558.264 130.216 558.136 130.536 558.136 130.992V131.568H559.708V132.468H558.136V138H557.236ZM561.251 135.204V134.364H565.451V135.204H561.251ZM567.264 138V128.916H568.164V132.816L567.96 132.768C568.12 132.352 568.38 132.024 568.74 131.784C569.108 131.544 569.532 131.424 570.012 131.424C570.468 131.424 570.876 131.528 571.236 131.736C571.604 131.944 571.892 132.232 572.1 132.6C572.316 132.96 572.424 133.368 572.424 133.824V138H571.524V134.172C571.524 133.78 571.452 133.448 571.308 133.176C571.164 132.904 570.964 132.696 570.708 132.552C570.46 132.4 570.176 132.324 569.856 132.324C569.536 132.324 569.248 132.4 568.992 132.552C568.736 132.696 568.532 132.908 568.38 133.188C568.236 133.46 568.164 133.788 568.164 134.172V138H567.264ZM577.155 138.144C576.547 138.144 575.995 138 575.499 137.712C575.003 137.416 574.607 137.016 574.311 136.512C574.023 136 573.879 135.42 573.879 134.772C573.879 134.132 574.023 133.56 574.311 133.056C574.599 132.552 574.987 132.156 575.475 131.868C575.971 131.572 576.531 131.424 577.155 131.424C577.779 131.424 578.335 131.568 578.823 131.856C579.319 132.144 579.707 132.54 579.987 133.044C580.275 133.548 580.419 134.124 580.419 134.772C580.419 135.428 580.271 136.012 579.975 136.524C579.679 137.028 579.283 137.424 578.787 137.712C578.299 138 577.755 138.144 577.155 138.144ZM577.155 137.244C577.587 137.244 577.975 137.136 578.319 136.92C578.671 136.704 578.947 136.408 579.147 136.032C579.355 135.656 579.459 135.236 579.459 134.772C579.459 134.308 579.355 133.892 579.147 133.524C578.947 133.156 578.671 132.864 578.319 132.648C577.975 132.432 577.587 132.324 577.155 132.324C576.723 132.324 576.331 132.432 575.979 132.648C575.635 132.864 575.359 133.156 575.151 133.524C574.943 133.892 574.839 134.308 574.839 134.772C574.839 135.236 574.943 135.656 575.151 136.032C575.359 136.408 575.635 136.704 575.979 136.92C576.331 137.136 576.723 137.244 577.155 137.244ZM584.238 138.144C583.622 138.144 583.082 137.988 582.618 137.676C582.154 137.364 581.818 136.94 581.61 136.404L582.366 136.044C582.55 136.436 582.806 136.748 583.134 136.98C583.47 137.212 583.838 137.328 584.238 137.328C584.622 137.328 584.946 137.236 585.21 137.052C585.474 136.86 585.606 136.612 585.606 136.308C585.606 136.084 585.542 135.908 585.414 135.78C585.286 135.644 585.138 135.54 584.97 135.468C584.802 135.396 584.654 135.344 584.526 135.312L583.602 135.048C583.01 134.88 582.582 134.644 582.318 134.34C582.054 134.036 581.922 133.684 581.922 133.284C581.922 132.908 582.018 132.58 582.21 132.3C582.402 132.02 582.662 131.804 582.99 131.652C583.318 131.5 583.682 131.424 584.082 131.424C584.626 131.424 585.118 131.568 585.558 131.856C586.006 132.136 586.322 132.528 586.506 133.032L585.738 133.392C585.578 133.032 585.346 132.752 585.042 132.552C584.746 132.344 584.414 132.24 584.046 132.24C583.686 132.24 583.398 132.332 583.182 132.516C582.966 132.7 582.858 132.932 582.858 133.212C582.858 133.428 582.914 133.6 583.026 133.728C583.138 133.856 583.266 133.952 583.41 134.016C583.562 134.08 583.694 134.128 583.806 134.16L584.874 134.472C585.394 134.624 585.798 134.86 586.086 135.18C586.382 135.5 586.53 135.876 586.53 136.308C586.53 136.66 586.43 136.976 586.23 137.256C586.038 137.536 585.77 137.756 585.426 137.916C585.082 138.068 584.686 138.144 584.238 138.144ZM590.572 138.072C589.996 138.072 589.552 137.904 589.24 137.568C588.928 137.232 588.771 136.752 588.771 136.128V132.468H587.583V131.568H587.884C588.156 131.568 588.372 131.48 588.532 131.304C588.692 131.12 588.771 130.892 588.771 130.62V130.08H589.672V131.568H591.088V132.468H589.672V136.128C589.672 136.344 589.704 136.536 589.768 136.704C589.832 136.864 589.94 136.992 590.092 137.088C590.252 137.184 590.464 137.232 590.728 137.232C590.792 137.232 590.868 137.228 590.956 137.22C591.044 137.212 591.12 137.204 591.184 137.196V138C591.088 138.024 590.98 138.04 590.86 138.048C590.74 138.064 590.644 138.072 590.572 138.072ZM595.457 138.144C594.857 138.144 594.313 138 593.825 137.712C593.345 137.416 592.965 137.012 592.685 136.5C592.405 135.988 592.265 135.408 592.265 134.76C592.265 134.112 592.401 133.54 592.673 133.044C592.945 132.54 593.313 132.144 593.777 131.856C594.249 131.568 594.777 131.424 595.361 131.424C595.825 131.424 596.237 131.512 596.597 131.688C596.965 131.856 597.277 132.088 597.533 132.384C597.789 132.672 597.985 133 598.121 133.368C598.257 133.728 598.325 134.1 598.325 134.484C598.325 134.564 598.321 134.656 598.313 134.76C598.305 134.856 598.293 134.956 598.277 135.06H592.841V134.22H597.761L597.329 134.58C597.401 134.14 597.349 133.748 597.173 133.404C597.005 133.052 596.761 132.776 596.441 132.576C596.121 132.368 595.761 132.264 595.361 132.264C594.961 132.264 594.589 132.368 594.245 132.576C593.909 132.784 593.645 133.076 593.453 133.452C593.261 133.82 593.185 134.26 593.225 134.772C593.185 135.284 593.265 135.732 593.465 136.116C593.673 136.492 593.953 136.784 594.305 136.992C594.665 137.2 595.049 137.304 595.457 137.304C595.929 137.304 596.325 137.192 596.645 136.968C596.965 136.744 597.225 136.464 597.425 136.128L598.193 136.536C598.065 136.824 597.869 137.092 597.605 137.34C597.341 137.58 597.025 137.776 596.657 137.928C596.297 138.072 595.897 138.144 595.457 138.144ZM602.816 138.144C602.216 138.144 601.676 138 601.196 137.712C600.716 137.416 600.336 137.016 600.056 136.512C599.784 136 599.648 135.424 599.648 134.784C599.648 134.136 599.784 133.56 600.056 133.056C600.336 132.552 600.712 132.156 601.184 131.868C601.664 131.572 602.208 131.424 602.816 131.424C603.368 131.424 603.86 131.544 604.292 131.784C604.724 132.024 605.064 132.348 605.312 132.756L605.168 133.008V128.916H606.068V138H605.168V136.56L605.312 136.692C605.088 137.156 604.752 137.516 604.304 137.772C603.864 138.02 603.368 138.144 602.816 138.144ZM602.864 137.244C603.296 137.244 603.684 137.136 604.028 136.92C604.38 136.704 604.656 136.412 604.856 136.044C605.064 135.668 605.168 135.248 605.168 134.784C605.168 134.32 605.064 133.904 604.856 133.536C604.656 133.16 604.38 132.864 604.028 132.648C603.684 132.432 603.296 132.324 602.864 132.324C602.44 132.324 602.056 132.432 601.712 132.648C601.368 132.864 601.096 133.156 600.896 133.524C600.704 133.892 600.608 134.312 600.608 134.784C600.608 135.248 600.704 135.668 600.896 136.044C601.096 136.412 601.364 136.704 601.7 136.92C602.044 137.136 602.432 137.244 602.864 137.244ZM610.267 135.444V134.124H611.227V135.444H610.267ZM615.56 138V129.06H618.632C619.216 129.06 619.728 129.176 620.168 129.408C620.608 129.632 620.948 129.952 621.188 130.368C621.436 130.776 621.56 131.252 621.56 131.796C621.56 132.34 621.436 132.816 621.188 133.224C620.948 133.632 620.608 133.952 620.168 134.184C619.736 134.408 619.224 134.52 618.632 134.52H616.52V138H615.56ZM616.52 133.62H618.68C619.064 133.62 619.4 133.548 619.688 133.404C619.976 133.252 620.2 133.04 620.36 132.768C620.52 132.488 620.6 132.16 620.6 131.784C620.6 131.408 620.52 131.084 620.36 130.812C620.2 130.54 619.976 130.332 619.688 130.188C619.4 130.036 619.064 129.96 618.68 129.96H616.52V133.62ZM623.139 138V131.568H624.039V132.624L623.919 132.468C624.071 132.164 624.299 131.924 624.603 131.748C624.915 131.572 625.291 131.484 625.731 131.484H626.139V132.384H625.575C625.111 132.384 624.739 132.528 624.459 132.816C624.179 133.104 624.039 133.512 624.039 134.04V138H623.139ZM630.206 138.144C629.598 138.144 629.046 138 628.55 137.712C628.054 137.416 627.658 137.016 627.362 136.512C627.074 136 626.93 135.42 626.93 134.772C626.93 134.132 627.074 133.56 627.362 133.056C627.65 132.552 628.038 132.156 628.526 131.868C629.022 131.572 629.582 131.424 630.206 131.424C630.83 131.424 631.386 131.568 631.874 131.856C632.37 132.144 632.758 132.54 633.038 133.044C633.326 133.548 633.47 134.124 633.47 134.772C633.47 135.428 633.322 136.012 633.026 136.524C632.73 137.028 632.334 137.424 631.838 137.712C631.35 138 630.806 138.144 630.206 138.144ZM630.206 137.244C630.638 137.244 631.026 137.136 631.37 136.92C631.722 136.704 631.998 136.408 632.198 136.032C632.406 135.656 632.51 135.236 632.51 134.772C632.51 134.308 632.406 133.892 632.198 133.524C631.998 133.156 631.722 132.864 631.37 132.648C631.026 132.432 630.638 132.324 630.206 132.324C629.774 132.324 629.382 132.432 629.03 132.648C628.686 132.864 628.41 133.156 628.202 133.524C627.994 133.892 627.89 134.308 627.89 134.772C627.89 135.236 627.994 135.656 628.202 136.032C628.41 136.408 628.686 136.704 629.03 136.92C629.382 137.136 629.774 137.244 630.206 137.244ZM637.961 138.144C637.361 138.144 636.821 138 636.341 137.712C635.861 137.416 635.481 137.016 635.201 136.512C634.929 136 634.793 135.424 634.793 134.784C634.793 134.136 634.929 133.56 635.201 133.056C635.481 132.552 635.857 132.156 636.329 131.868C636.809 131.572 637.353 131.424 637.961 131.424C638.513 131.424 639.005 131.544 639.437 131.784C639.869 132.024 640.209 132.348 640.457 132.756L640.313 133.008V128.916H641.213V138H640.313V136.56L640.457 136.692C640.233 137.156 639.897 137.516 639.449 137.772C639.009 138.02 638.513 138.144 637.961 138.144ZM638.009 137.244C638.441 137.244 638.829 137.136 639.173 136.92C639.525 136.704 639.801 136.412 640.001 136.044C640.209 135.668 640.313 135.248 640.313 134.784C640.313 134.32 640.209 133.904 640.001 133.536C639.801 133.16 639.525 132.864 639.173 132.648C638.829 132.432 638.441 132.324 638.009 132.324C637.585 132.324 637.201 132.432 636.857 132.648C636.513 132.864 636.241 133.156 636.041 133.524C635.849 133.892 635.753 134.312 635.753 134.784C635.753 135.248 635.849 135.668 636.041 136.044C636.241 136.412 636.509 136.704 636.845 136.92C637.189 137.136 637.577 137.244 638.009 137.244ZM645.341 138.144C644.893 138.144 644.485 138.04 644.117 137.832C643.749 137.616 643.457 137.32 643.241 136.944C643.033 136.56 642.929 136.12 642.929 135.624V131.568H643.829V135.516C643.829 135.86 643.897 136.164 644.033 136.428C644.177 136.684 644.373 136.884 644.621 137.028C644.877 137.172 645.169 137.244 645.497 137.244C645.825 137.244 646.117 137.172 646.373 137.028C646.629 136.876 646.829 136.664 646.973 136.392C647.117 136.112 647.189 135.78 647.189 135.396V131.568H648.089V138H647.189V136.752L647.393 136.8C647.241 137.216 646.981 137.544 646.613 137.784C646.245 138.024 645.821 138.144 645.341 138.144ZM652.88 138.144C652.248 138.144 651.692 137.996 651.212 137.7C650.732 137.404 650.356 137.004 650.084 136.5C649.812 135.988 649.676 135.412 649.676 134.772C649.676 134.132 649.812 133.56 650.084 133.056C650.356 132.552 650.732 132.156 651.212 131.868C651.692 131.572 652.248 131.424 652.88 131.424C653.28 131.424 653.656 131.496 654.008 131.64C654.36 131.784 654.672 131.98 654.944 132.228C655.216 132.468 655.42 132.748 655.556 133.068L654.74 133.488C654.58 133.144 654.336 132.864 654.008 132.648C653.68 132.432 653.304 132.324 652.88 132.324C652.456 132.324 652.072 132.432 651.728 132.648C651.392 132.856 651.124 133.148 650.924 133.524C650.732 133.892 650.636 134.312 650.636 134.784C650.636 135.248 650.732 135.668 650.924 136.044C651.124 136.412 651.392 136.704 651.728 136.92C652.072 137.136 652.456 137.244 652.88 137.244C653.304 137.244 653.676 137.136 653.996 136.92C654.324 136.704 654.572 136.416 654.74 136.056L655.556 136.5C655.42 136.812 655.216 137.092 654.944 137.34C654.672 137.588 654.36 137.784 654.008 137.928C653.656 138.072 653.28 138.144 652.88 138.144ZM659.595 138.072C659.019 138.072 658.575 137.904 658.263 137.568C657.951 137.232 657.795 136.752 657.795 136.128V132.468H656.607V131.568H656.907C657.179 131.568 657.395 131.48 657.555 131.304C657.715 131.12 657.795 130.892 657.795 130.62V130.08H658.695V131.568H660.111V132.468H658.695V136.128C658.695 136.344 658.727 136.536 658.791 136.704C658.855 136.864 658.963 136.992 659.115 137.088C659.275 137.184 659.487 137.232 659.751 137.232C659.815 137.232 659.891 137.228 659.979 137.22C660.067 137.212 660.143 137.204 660.207 137.196V138C660.111 138.024 660.003 138.04 659.883 138.048C659.763 138.064 659.667 138.072 659.595 138.072ZM661.787 138V131.568H662.687V138H661.787ZM661.787 130.38V129.06H662.687V130.38H661.787ZM667.541 138.144C666.933 138.144 666.381 138 665.885 137.712C665.389 137.416 664.993 137.016 664.697 136.512C664.409 136 664.265 135.42 664.265 134.772C664.265 134.132 664.409 133.56 664.697 133.056C664.985 132.552 665.373 132.156 665.861 131.868C666.357 131.572 666.917 131.424 667.541 131.424C668.165 131.424 668.721 131.568 669.209 131.856C669.705 132.144 670.093 132.54 670.373 133.044C670.661 133.548 670.805 134.124 670.805 134.772C670.805 135.428 670.657 136.012 670.361 136.524C670.065 137.028 669.669 137.424 669.173 137.712C668.685 138 668.141 138.144 667.541 138.144ZM667.541 137.244C667.973 137.244 668.361 137.136 668.705 136.92C669.057 136.704 669.333 136.408 669.533 136.032C669.741 135.656 669.845 135.236 669.845 134.772C669.845 134.308 669.741 133.892 669.533 133.524C669.333 133.156 669.057 132.864 668.705 132.648C668.361 132.432 667.973 132.324 667.541 132.324C667.109 132.324 666.717 132.432 666.365 132.648C666.021 132.864 665.745 133.156 665.537 133.524C665.329 133.892 665.225 134.308 665.225 134.772C665.225 135.236 665.329 135.656 665.537 136.032C665.745 136.408 666.021 136.704 666.365 136.92C666.717 137.136 667.109 137.244 667.541 137.244ZM672.393 138V131.568H673.293V132.816L673.089 132.768C673.249 132.352 673.509 132.024 673.869 131.784C674.237 131.544 674.661 131.424 675.141 131.424C675.597 131.424 676.005 131.528 676.365 131.736C676.733 131.944 677.021 132.232 677.229 132.6C677.445 132.96 677.553 133.368 677.553 133.824V138H676.653V134.172C676.653 133.78 676.581 133.448 676.437 133.176C676.301 132.904 676.105 132.696 675.849 132.552C675.601 132.4 675.313 132.324 674.985 132.324C674.657 132.324 674.365 132.4 674.109 132.552C673.853 132.696 673.653 132.908 673.509 133.188C673.365 133.46 673.293 133.788 673.293 134.172V138H672.393ZM679.236 135.204V134.364H683.436V135.204H679.236ZM685.248 138V131.568H686.148V132.624L686.028 132.468C686.18 132.164 686.408 131.924 686.712 131.748C687.024 131.572 687.4 131.484 687.84 131.484H688.248V132.384H687.684C687.22 132.384 686.848 132.528 686.568 132.816C686.288 133.104 686.148 133.512 686.148 134.04V138H685.248ZM692.231 138.144C691.631 138.144 691.087 138 690.599 137.712C690.119 137.416 689.739 137.012 689.459 136.5C689.179 135.988 689.039 135.408 689.039 134.76C689.039 134.112 689.175 133.54 689.447 133.044C689.719 132.54 690.087 132.144 690.551 131.856C691.023 131.568 691.551 131.424 692.135 131.424C692.599 131.424 693.011 131.512 693.371 131.688C693.739 131.856 694.051 132.088 694.307 132.384C694.563 132.672 694.759 133 694.895 133.368C695.031 133.728 695.099 134.1 695.099 134.484C695.099 134.564 695.095 134.656 695.087 134.76C695.079 134.856 695.067 134.956 695.051 135.06H689.615V134.22H694.535L694.103 134.58C694.175 134.14 694.123 133.748 693.947 133.404C693.779 133.052 693.535 132.776 693.215 132.576C692.895 132.368 692.535 132.264 692.135 132.264C691.735 132.264 691.363 132.368 691.019 132.576C690.683 132.784 690.419 133.076 690.227 133.452C690.035 133.82 689.959 134.26 689.999 134.772C689.959 135.284 690.039 135.732 690.239 136.116C690.447 136.492 690.727 136.784 691.079 136.992C691.439 137.2 691.823 137.304 692.231 137.304C692.703 137.304 693.099 137.192 693.419 136.968C693.739 136.744 693.999 136.464 694.199 136.128L694.967 136.536C694.839 136.824 694.643 137.092 694.379 137.34C694.115 137.58 693.799 137.776 693.431 137.928C693.071 138.072 692.671 138.144 692.231 138.144ZM698.429 138.144C698.021 138.144 697.657 138.068 697.337 137.916C697.017 137.756 696.765 137.54 696.581 137.268C696.397 136.996 696.305 136.684 696.305 136.332C696.305 135.996 696.377 135.692 696.521 135.42C696.665 135.14 696.889 134.904 697.193 134.712C697.497 134.52 697.885 134.384 698.357 134.304L700.877 133.884V134.7L698.573 135.084C698.109 135.164 697.773 135.312 697.565 135.528C697.365 135.744 697.265 136 697.265 136.296C697.265 136.584 697.377 136.828 697.601 137.028C697.833 137.228 698.129 137.328 698.489 137.328C698.929 137.328 699.313 137.236 699.641 137.052C699.969 136.86 700.225 136.604 700.409 136.284C700.593 135.964 700.685 135.608 700.685 135.216V133.584C700.685 133.2 700.545 132.888 700.265 132.648C699.985 132.408 699.621 132.288 699.173 132.288C698.781 132.288 698.437 132.388 698.141 132.588C697.845 132.78 697.625 133.032 697.481 133.344L696.665 132.9C696.785 132.628 696.973 132.38 697.229 132.156C697.493 131.932 697.793 131.756 698.129 131.628C698.465 131.492 698.813 131.424 699.173 131.424C699.645 131.424 700.061 131.516 700.421 131.7C700.789 131.884 701.073 132.14 701.273 132.468C701.481 132.788 701.585 133.16 701.585 133.584V138H700.685V136.716L700.817 136.848C700.705 137.088 700.529 137.308 700.289 137.508C700.057 137.7 699.781 137.856 699.461 137.976C699.149 138.088 698.805 138.144 698.429 138.144ZM706.34 138.144C705.74 138.144 705.2 138 704.72 137.712C704.24 137.416 703.86 137.016 703.58 136.512C703.308 136 703.172 135.424 703.172 134.784C703.172 134.136 703.308 133.56 703.58 133.056C703.86 132.552 704.236 132.156 704.708 131.868C705.188 131.572 705.732 131.424 706.34 131.424C706.892 131.424 707.384 131.544 707.816 131.784C708.248 132.024 708.588 132.348 708.836 132.756L708.692 133.008V128.916H709.592V138H708.692V136.56L708.836 136.692C708.612 137.156 708.276 137.516 707.828 137.772C707.388 138.02 706.892 138.144 706.34 138.144ZM706.388 137.244C706.82 137.244 707.208 137.136 707.552 136.92C707.904 136.704 708.18 136.412 708.38 136.044C708.588 135.668 708.692 135.248 708.692 134.784C708.692 134.32 708.588 133.904 708.38 133.536C708.18 133.16 707.904 132.864 707.552 132.648C707.208 132.432 706.82 132.324 706.388 132.324C705.964 132.324 705.58 132.432 705.236 132.648C704.892 132.864 704.62 133.156 704.42 133.524C704.228 133.892 704.132 134.312 704.132 134.784C704.132 135.248 704.228 135.668 704.42 136.044C704.62 136.412 704.888 136.704 705.224 136.92C705.568 137.136 705.956 137.244 706.388 137.244ZM711.572 140.64C711.444 140.64 711.312 140.628 711.176 140.604C711.048 140.588 710.92 140.556 710.792 140.508V139.668C710.872 139.676 710.972 139.688 711.092 139.704C711.22 139.728 711.348 139.74 711.476 139.74C711.868 139.74 712.168 139.656 712.376 139.488C712.584 139.328 712.788 139.016 712.988 138.552L713.396 137.592L713.372 138.384L710.648 131.568H711.62L713.852 137.196H713.6L715.82 131.568H716.816L713.876 138.816C713.748 139.128 713.584 139.424 713.384 139.704C713.192 139.984 712.948 140.208 712.652 140.376C712.356 140.552 711.996 140.64 711.572 140.64Z" fill="#6A8A5A"/>
<path opacity="0.07" d="M846 0H14C6.26801 0 0 6.26801 0 14V186C0 193.732 6.26801 200 14 200H846C853.732 200 860 193.732 860 186V14C860 6.26801 853.732 0 846 0Z" stroke="#A3D96A"/>
</g>
<defs>
<linearGradient id="paint0_linear_8_30" x1="-4" y1="0" x2="856" y2="0" gradientUnits="userSpaceOnUse">
<stop stop-color="#0F1A0F"/>
<stop offset="1" stop-color="#111E10"/>
</linearGradient>
<linearGradient id="paint1_linear_8_30" x1="-nan" y1="-nan" x2="-nan" y2="-nan" gradientUnits="userSpaceOnUse">
<stop stop-color="#A3D96A" stop-opacity="0"/>
<stop offset="0.3" stop-color="#A3D96A" stop-opacity="0.12"/>
<stop offset="1" stop-color="#A3D96A" stop-opacity="0"/>
</linearGradient>
<clipPath id="clip0_8_30">
<rect width="860" height="200" fill="white"/>
</clipPath>
</defs>
</svg>
